<?xml version="1.0" encoding="UTF-8"?>
<svg width="50px" height="31px" viewBox="0 0 50 31" version="1.1" xmlns="http://www.w3.org/2000/svg" xmlns:xlink="http://www.w3.org/1999/xlink">
    <!-- Generator: Sketch 50.2 (55047) - http://www.bohemiancoding.com/sketch -->
    <title>arrow</title>
    <desc>Created with Sketch.</desc>
    <defs></defs>
    <g id="Symbols" stroke="none" stroke-width="1" fill="none" fill-rule="evenodd">
        <g id="arrow" fill="#3C12FF">
            <g>
                <rect id="Rectangle" x="0" y="13.6363636" width="45.4545455" height="3.8961039" rx="1.94805195"></rect>
                <g id="Page-1" transform="translate(40.175325, 15.824675) rotate(-270.000000) translate(-40.175325, -15.824675) translate(24.675325, 6.324675)">
                    <path d="M28.2696189,18.8444911 C27.7420787,18.8444911 27.2220747,18.6259387 26.8490284,18.2001384 L15.0773447,4.74786218 L3.30566105,18.2001384 C2.61609059,18.9839124 1.42912505,19.0630435 0.645350973,18.3772411 C-0.138423101,17.6914388 -0.221322282,16.5007051 0.468248177,15.7169311 L13.6567542,0.644352724 C14.014728,0.241161254 14.5309638,-4.42935731e-13 15.0735766,-4.42935731e-13 C15.6161894,-4.42935731e-13 16.1286571,0.233624964 16.490399,0.644352724 L29.678905,15.7169311 C30.3647073,16.5007051 30.2855763,17.6914388 29.5018022,18.3772411 C29.1400603,18.6899971 28.7029556,18.8444911 28.2620826,18.8444911 L28.2696189,18.8444911 Z" id="Fill-1"></path>
                </g>
            </g>
        </g>
    </g>
</svg>