<?xml version="1.0" encoding="UTF-8"?>
<svg width="45px" height="45px" viewBox="0 0 45 45" version="1.1" xmlns="http://www.w3.org/2000/svg" xmlns:xlink="http://www.w3.org/1999/xlink">
    <!-- Generator: Sketch 50.2 (55047) - http://www.bohemiancoding.com/sketch -->
    <title>behance-logo</title>
    <desc>Created with Sketch.</desc>
    <defs></defs>
    <g id="FINAL-01" stroke="none" stroke-width="1" fill="none" fill-rule="evenodd">
        <g id="HOME" transform="translate(-1227.000000, -2513.000000)" fill="#444444" fill-rule="nonzero">
            <g id="CONTACT" transform="translate(96.000000, 2425.000000)">
                <g id="behance-logo" transform="translate(1131.000000, 88.000000)">
                    <path d="M32.9218085,22.0101596 C29.4175532,22.0101596 28.9292553,25.5081915 28.9292553,25.5081915 L36.3811278,25.5081915 C36.3815426,25.5077128 36.4255851,22.0101596 32.9218085,22.0101596 Z" id="Shape"></path>
                    <path d="M16.014734,25.5077128 L9.41074468,25.5077071 L9.41074468,31.5707447 L15.7093085,31.5707447 C16.6567021,31.5444149 18.4059574,31.2471277 18.4059574,28.6251596 C18.4059574,25.4770745 16.014734,25.5077128 16.014734,25.5077128 Z" id="Shape"></path>
                    <path d="M17.6189362,19.307766 C17.6189362,16.9476596 16.0142553,16.9476596 16.0142553,16.9476596 L15.1635638,16.9476596 L9.41074468,16.9476596 L9.41074468,22.0096814 L15.6049468,22.0096809 C16.6753723,22.0101596 17.6189362,21.6678723 17.6189362,19.307766 Z" id="Shape"></path>
                    <path d="M37.4376601,0 L7.55671521,0 C3.40291232,0 0,3.40009999 0,7.55952753 L0,37.4404725 C0,41.5970877 3.40009999,45 7.55671521,45 L37.4376601,45 C41.5970877,45 45,41.5999 45,37.4404725 L45,7.55952753 C45,3.40291232 41.5999,0 37.4376601,0 Z M27.9521809,14.2524468 L37.3117021,14.2524468 L37.3117021,17.0462766 L27.9521809,17.0462766 L27.9521809,14.2524468 Z M23.2204787,28.9066489 C23.2204787,35.8304255 16.0142553,35.6020745 16.0142553,35.6020745 L9.41074468,35.6020745 L9.2168617,35.6020745 L4.20941489,35.6020745 L4.20941489,12.9163298 L9.2168617,12.9163298 L9.41074468,12.9163298 L16.014734,12.9163298 C19.6018085,12.9163298 22.4339362,14.8968085 22.4339362,18.956383 C22.4339362,23.0159574 18.972766,23.2735106 18.972766,23.2735106 C23.5359574,23.2735106 23.2204787,28.9066489 23.2204787,28.9066489 Z M40.7293085,28.5356383 L28.9728191,28.5356383 C28.9728191,32.7507979 32.9653723,32.4841489 32.9653723,32.4841489 C36.7362766,32.4841489 36.6036702,30.043617 36.6036702,30.043617 L40.5962234,30.043617 C40.5962234,36.520266 32.8332447,36.0774468 32.8332447,36.0774468 C23.5172872,36.0774468 24.1156915,27.4044149 24.1156915,27.4044149 C24.1156915,27.4044149 24.107936,18.6882979 32.832766,18.6882979 C42.0156383,18.6878191 40.7293085,28.5356383 40.7293085,28.5356383 Z" id="Shape"></path>
                </g>
            </g>
        </g>
    </g>
</svg>