<?xml version="1.0" encoding="UTF-8"?>
<svg width="63px" height="48px" viewBox="0 0 63 48" version="1.1" xmlns="http://www.w3.org/2000/svg" xmlns:xlink="http://www.w3.org/1999/xlink">
    <!-- Generator: Sketch 50.2 (55047) - http://www.bohemiancoding.com/sketch -->
    <title>icon-ux</title>
    <desc>Created with Sketch.</desc>
    <defs></defs>
    <g id="FINAL-01" stroke="none" stroke-width="1" fill="none" fill-rule="evenodd">
        <g id="HOME" transform="translate(-1124.000000, -958.000000)" fill="#3C12FF" fill-rule="nonzero">
            <g id="icon-ux" transform="translate(1124.000000, 958.000000)">
                <path d="M47.5563153,44.3787692 L40.7852729,44.3787692 C40.5408706,44.3787692 40.3412753,44.1917063 40.3412753,43.9623229 L40.3412753,42.4164462 C40.3412753,42.1873567 40.1415234,42 39.8972776,42 L30.422769,42 C30.1783666,42 29.9786147,42.1873567 29.9786147,42.4164462 L29.9786147,43.9623229 C29.9786147,44.1917063 29.7788628,44.3787692 29.5344604,44.3787692 L24.4441543,44.3787692 C24.1997519,44.3787692 24,44.5661259 24,44.7952154 L24,46.5835538 C24,46.8126433 24.1997519,47 24.4441543,47 L47.556002,47 C47.8002477,47 47.9999996,46.8126433 47.9999996,46.5835538 L47.9999996,44.7952154 C48.000313,44.5665667 47.800561,44.3787692 47.5563153,44.3787692 Z" id="Shape"></path>
                <path d="M59.9183904,0 L11.0838808,0 C9.38480723,0 8.00258792,1.37893452 8.00258792,3.07409206 C8.00258792,3.07409206 8.00258792,8.93559049 8.00258792,11.0919724 C8.00258792,12.1519987 7.92373064,12.3018966 8.63661314,12.3018966 C9.0152231,12.3018966 9.43452849,12.3018966 9.85905936,12.3018966 C10.4572979,12.3018966 10.3345783,12.1519987 10.3345783,11.0722282 C10.3345783,8.92074286 10.3345783,3.07409206 10.3345783,3.07409206 C10.3345783,2.6689412 10.6778766,2.32649789 11.0838808,2.32649789 L59.9183904,2.32649789 C60.3242362,2.32649789 60.6675346,2.6689412 60.6675346,3.07409206 L60.6675346,33.0851093 L25.8515695,33.0851093 C25.8515695,33.0851093 24.6245312,33.082898 24.6245312,34.6655926 C24.6245312,35.6039946 24.6245312,37.4807988 24.6245312,38.4195167 C24.6245312,40 25.8913149,40 25.8913149,40 L59.9183904,40 C61.6173056,40 63,38.6212234 63,36.9263818 L63,3.07409206 C63,1.37909248 61.6176223,0 59.9183904,0 Z M35.501294,37.3459064 C34.7340981,37.3459064 34.112424,36.7257808 34.112424,35.9609697 C34.112424,35.1961586 34.7340981,34.575717 35.501294,34.575717 C36.2676981,34.575717 36.8895305,35.1961586 36.8895305,35.9609697 C36.8895305,36.7257808 36.2676981,37.3459064 35.501294,37.3459064 Z" id="Shape"></path>
                <path d="M19.9785637,15 L2.02143631,15 C0.906499663,15 0,15.8915839 0,16.9879804 L0,46.0118613 C0,47.1080996 0.906499663,48 2.02143631,48 L19.9785637,48 C21.0928565,48 22,47.1080996 22,46.0118613 L22,16.9879804 C22,15.8915839 21.0928565,15 19.9785637,15 Z M8.78493459,17.0275501 L13.2149045,17.0275501 C13.4262386,17.0275501 13.5979778,17.1959586 13.5979778,17.4044117 C13.5979778,17.6123899 13.4263996,17.7809567 13.2149045,17.7809567 L8.78493459,17.7809567 C8.57327851,17.7809567 8.40202218,17.6123899 8.40202218,17.4044117 C8.40202218,17.1959586 8.57327851,17.0275501 8.78493459,17.0275501 Z M10.9731205,46.6036654 C10.3952913,46.6036654 9.92691171,46.1430743 9.92691171,45.5748538 C9.92691171,45.0066333 10.3952913,44.5460423 10.9731205,44.5460423 C11.5509496,44.5460423 12.0193293,45.0066333 12.0193293,45.5748538 C12.0193293,46.1430743 11.5509496,46.6036654 10.9731205,46.6036654 Z M20.2631325,43.5799092 C20.2631325,43.8451843 20.0471306,44.0621843 19.783486,44.0621843 L2.21699687,44.0621843 C1.9531913,44.0621843 1.73735038,43.8451843 1.73735038,43.5799092 L1.73735038,19.462193 C1.73735038,19.1969179 1.95335226,18.9800761 2.21699687,18.9800761 L19.783486,18.9800761 C20.0472916,18.9800761 20.2631325,19.1970762 20.2631325,19.462193 L20.2631325,43.5799092 Z" id="Shape"></path>
            </g>
        </g>
    </g>
</svg>