<?xml version="1.0" encoding="UTF-8"?>
<svg width="52px" height="91px" viewBox="0 0 52 91" version="1.1" xmlns="http://www.w3.org/2000/svg" xmlns:xlink="http://www.w3.org/1999/xlink">
    <!-- Generator: Sketch 50.2 (55047) - http://www.bohemiancoding.com/sketch -->
    <title>device</title>
    <desc>Created with Sketch.</desc>
    <defs>
        <polygon id="path-1" points="0.0001 0.0004 51.132 0.0004 51.132 90.2322 0.0001 90.2322"></polygon>
    </defs>
    <g id="FINAL-01" stroke="none" stroke-width="1" fill="none" fill-rule="evenodd">
        <g id="INTERACTION-SLIDER-02" transform="translate(-510.000000, -2382.000000)">
            <g id="RADIO-RESEARCH" transform="translate(256.000000, 2273.000000)">
                <g id="device" transform="translate(254.000000, 109.000000)">
                    <mask id="mask-2" fill="white">
                        <use xlink:href="#path-1"></use>
                    </mask>
                    <g id="Clip-2"></g>
                    <path d="M48.1241,9.0232 L3.0081,9.0232 L3.0081,6.6252 C3.0081,4.6302 4.6301,3.0072 6.6241,3.0072 L44.5061,3.0072 C46.5011,3.0072 48.1241,4.6302 48.1241,6.6252 L48.1241,9.0232 Z M3.0081,69.1782 L48.1241,69.1782 L48.1241,12.0312 L3.0081,12.0312 L3.0081,69.1782 Z M48.1241,83.6082 C48.1241,85.6022 46.5011,87.2242 44.5071,87.2242 L6.6241,87.2242 C4.6301,87.2242 3.0081,85.6022 3.0081,83.6082 L3.0081,72.1862 L48.1241,72.1862 L48.1241,83.6082 Z M6.6241,0.000199999999 C2.9721,0.000199999999 0.0001,2.9732 0.0001,6.6252 L0.0001,83.6062 C0.0001,87.2592 2.9721,90.2322 6.6241,90.2322 L44.5061,90.2322 C48.1601,90.2322 51.1321,87.2592 51.1321,83.6082 L51.1321,6.6252 C51.1321,2.9732 48.1601,0.000199999999 44.5071,0.000199999999 L6.6241,0.000199999999 Z" id="Fill-1" fill="#646C6B" mask="url(#mask-2)"></path>
                    <path d="M25.566,76.698 C27.225,76.698 28.573,78.047 28.573,79.705 C28.573,81.364 27.225,82.713 25.566,82.713 C23.907,82.713 22.558,81.364 22.558,79.705 C22.558,78.047 23.907,76.698 25.566,76.698 M25.566,85.72 C28.884,85.72 31.581,83.023 31.581,79.705 C31.581,76.387 28.884,73.69 25.566,73.69 C22.248,73.69 19.55,76.387 19.55,79.705 C19.55,83.023 22.248,85.72 25.566,85.72" id="Fill-4" fill="#646C6B" mask="url(#mask-2)"></path>
                    <path d="M25.566,4.5115 L19.55,4.5115 C18.72,4.5115 18.046,5.1835 18.046,6.0155 C18.046,6.8465 18.72,7.5195 19.55,7.5195 L25.566,7.5195 C26.396,7.5195 27.069,6.8465 27.069,6.0155 C27.069,5.1835 26.396,4.5115 25.566,4.5115" id="Fill-6" fill="#646C6B" mask="url(#mask-2)"></path>
                    <path d="M31.5812,4.5115 L30.0772,4.5115 C29.2472,4.5115 28.5732,5.1835 28.5732,6.0155 C28.5732,6.8465 29.2472,7.5195 30.0772,7.5195 L31.5812,7.5195 C32.4112,7.5195 33.0852,6.8465 33.0852,6.0155 C33.0852,5.1835 32.4112,4.5115 31.5812,4.5115" id="Fill-8" fill="#646C6B" mask="url(#mask-2)"></path>
                </g>
            </g>
        </g>
    </g>
</svg>