<?xml version="1.0" encoding="UTF-8"?>
<svg width="67px" height="50px" viewBox="0 0 67 50" version="1.1" xmlns="http://www.w3.org/2000/svg" xmlns:xlink="http://www.w3.org/1999/xlink">
    <!-- Generator: Sketch 50.2 (55047) - http://www.bohemiancoding.com/sketch -->
    <title>icon-creative-cloud</title>
    <desc>Created with Sketch.</desc>
    <defs></defs>
    <g id="FINAL-01" stroke="none" stroke-width="1" fill="none" fill-rule="evenodd">
        <g id="HOME" transform="translate(-545.000000, -956.000000)" fill-rule="nonzero">
            <g id="icon-creative-cloud" transform="translate(545.000000, 956.000000)">
                <path d="M41.875,0 C34.3416875,0 27.5998125,3.31666667 22.99775,8.54166667 C22.311,8.47083333 21.641,8.33333333 20.9375,8.33333333 C9.3758125,8.33333333 0,17.6625 0,29.1666667 C0,40.6708333 9.3758125,50 20.9375,50 C24.5345625,50 37.90525,50 41.875,50 C55.752375,50 67,38.8083333 67,25 C67,11.1916667 55.752375,0 41.875,0 Z" id="Shape" fill="#3C12FF"></path>
                <g id="Group" transform="translate(5.000000, 4.000000)" fill="#FAFAFA">
                    <path d="M37.9285714,0 C32.5764286,0 27.6288571,1.9782 23.8317857,5.4306 C25.1550714,5.8464 26.491,6.4512 27.8227143,7.2702 C27.8901429,7.308 27.9575714,7.35 28.025,7.392 L28.0376429,7.4004 C30.8527857,5.3508 34.2747857,4.2 37.9285714,4.2 C47.2252857,4.2 54.7857143,11.7348 54.7857143,21 C54.7857143,30.2652 47.2252857,37.8 37.9285714,37.8 C34.2874286,37.8 30.8148571,36.6534 27.8817143,34.4736 C26.6932857,33.6 25.724,32.6802 24.9148571,31.6638 C24.8685,31.605 24.8221429,31.5504 24.7673571,31.4958 L18.4880714,23.8686 C17.7463571,22.9698 16.4188571,22.8354 15.5212143,23.5746 C14.6193571,24.3096 14.4887143,25.6326 15.2262143,26.5314 L21.6277143,34.3098 C21.6614286,34.3518 21.6993571,34.3938 21.7372857,34.4316 C22.7571429,35.6832 23.9497857,36.8004 25.3742143,37.8462 C29.028,40.5636 33.3687143,42 37.9285714,42 C49.5473571,42 59,32.5794 59,21 C59,9.4206 49.5473571,0 37.9285714,0 Z" id="Shape"></path>
                    <path d="M18.9600714,37.611 C18.2731429,37.7244 17.5693571,37.8 16.8571429,37.8 C9.88671429,37.8 4.21428571,32.1468 4.21428571,25.2 C4.21428571,16.863 12.2930714,10.2354 21.0967143,13.3644 C21.8468571,13.5744 22.6644286,13.9566 23.5283571,14.5026 C23.5662857,14.5278 23.6084286,14.5488 23.6505714,14.574 L36.8117857,22.785 C37.8021429,23.3982 39.1001429,23.1 39.7154286,22.113 C40.3307143,21.1302 40.0315,19.8366 39.0495714,19.2192 L25.7914286,10.9494 C25.7577143,10.9284 25.7197857,10.9074 25.6818571,10.8864 C24.5060714,10.1556 23.3513571,9.6306 22.3778571,9.366 C20.5994286,8.7234 18.7451429,8.4 16.8571429,8.4 C7.56042857,8.4 0,15.9348 0,25.2 C0,34.4652 7.56042857,42 16.8571429,42 C18.8420714,42 20.768,41.6346 22.5801429,40.9836 C21.2147143,39.9546 20.0262857,38.8332 18.9600714,37.611 Z" id="Shape"></path>
                </g>
            </g>
        </g>
    </g>
</svg>