<?xml version="1.0" encoding="UTF-8"?>
<svg width="80px" height="78px" viewBox="0 0 80 78" version="1.1" xmlns="http://www.w3.org/2000/svg" xmlns:xlink="http://www.w3.org/1999/xlink">
    <!-- Generator: Sketch 50.2 (55047) - http://www.bohemiancoding.com/sketch -->
    <title>connected</title>
    <desc>Created with Sketch.</desc>
    <defs></defs>
    <g id="FINAL-01" stroke="none" stroke-width="1" fill="none" fill-rule="evenodd">
        <g id="INTERACTION-SLIDER-02" transform="translate(-945.000000, -2395.000000)" fill="#646C6B">
            <g id="RADIO-RESEARCH" transform="translate(256.000000, 2273.000000)">
                <g id="connected" transform="translate(689.000000, 122.000000)">
                    <path d="M63.2495,69.6504 L16.0575,69.6504 C15.7715,69.6504 15.5415,69.4194 15.5415,69.1334 L15.5415,65.9114 C15.5415,65.6264 15.7715,65.3954 16.0575,65.3954 L63.2495,65.3954 C63.5345,65.3954 63.7665,65.6264 63.7665,65.9114 L63.7665,69.1334 C63.7665,69.4194 63.5345,69.6504 63.2495,69.6504 M63.2495,62.5584 L16.0575,62.5584 C14.2065,62.5614 12.7065,64.0614 12.7045,65.9114 L12.7045,69.1344 C12.7065,70.9844 14.2065,72.4844 16.0575,72.4874 L63.2495,72.4874 C65.1005,72.4844 66.6005,70.9844 66.6035,69.1344 L66.6035,65.9114 C66.6005,64.0604 65.1005,62.5614 63.2495,62.5584" id="Fill-1"></path>
                    <path d="M75.8589,72.4111 C75.8589,73.3631 75.0879,74.1351 74.1349,74.1351 L5.1719,74.1351 C4.2199,74.1351 3.4479,73.3631 3.4479,72.4111 L3.4479,51.7221 C3.4479,50.7701 4.2199,49.9981 5.1719,49.9981 L37.9289,49.9981 L37.9289,51.8001 C37.9289,52.7521 38.7019,53.5241 39.6539,53.5241 C40.6059,53.5241 41.3779,52.7521 41.3779,51.8001 L41.3779,49.9981 L44.8259,49.9981 L44.8259,51.8001 C44.8259,52.7521 45.5979,53.5241 46.5489,53.5241 C47.5029,53.5241 48.2739,52.7521 48.2739,51.8001 L48.2739,49.9981 L51.7219,49.9981 L51.7219,51.7221 C51.7219,52.6741 52.4939,53.4461 53.4459,53.4461 C54.3979,53.4461 55.1709,52.6741 55.1709,51.7221 L55.1709,49.9981 L58.6189,49.9981 L58.6189,51.7221 C58.6189,52.6741 59.3899,53.4461 60.3419,53.4461 C61.2949,53.4461 62.0669,52.6741 62.0669,51.7221 L62.0669,49.9981 L65.5139,49.9981 L65.5139,51.7221 C65.5139,52.6741 66.2869,53.4461 67.2389,53.4461 C68.1909,53.4461 68.9629,52.6741 68.9629,51.7221 L68.9629,49.9981 L74.1349,49.9981 C75.0879,49.9981 75.8589,50.7701 75.8589,51.7221 L75.8589,72.4111 Z M18.9639,5.1721 C18.9639,4.2201 19.7369,3.4481 20.6889,3.4481 C21.6409,3.4481 22.4129,4.2201 22.4129,5.1721 L22.4129,46.5501 L18.9639,46.5501 L18.9639,5.1721 Z M56.8939,5.1721 C56.8939,4.2201 57.6669,3.4481 58.6189,3.4481 C59.5709,3.4481 60.3419,4.2201 60.3419,5.1721 L60.3419,46.4721 C60.2109,46.4821 60.0809,46.5081 59.9549,46.5501 L56.8939,46.5501 L56.8939,5.1721 Z M74.1349,46.5501 L67.6269,46.5501 C67.3789,46.4461 67.0989,46.4461 66.8509,46.5501 L63.7909,46.5501 L63.7909,5.1721 C63.7909,2.3161 61.4749,0.0001 58.6189,0.0001 C55.7619,0.0001 53.4459,2.3161 53.4459,5.1721 L53.4459,46.4721 C53.3139,46.4821 53.1839,46.5081 53.0579,46.5501 L25.8609,46.5501 L25.8609,5.1721 C25.8609,2.3161 23.5459,0.0001 20.6889,0.0001 C17.8329,0.0001 15.5159,2.3161 15.5159,5.1721 L15.5159,46.5501 L5.1719,46.5501 C2.3159,46.5501 0.0009,48.8661 0.0009,51.7221 L0.0009,72.4111 C0.0009,75.2671 2.3159,77.5831 5.1719,77.5831 L74.1349,77.5831 C76.9919,77.5831 79.3069,75.2671 79.3069,72.4111 L79.3069,51.7221 C79.3069,48.8661 76.9919,46.5501 74.1349,46.5501 Z" id="Fill-3"></path>
                </g>
            </g>
        </g>
    </g>
</svg>