<?xml version="1.0" encoding="UTF-8"?>
<svg width="45px" height="45px" viewBox="0 0 45 45" version="1.1" xmlns="http://www.w3.org/2000/svg" xmlns:xlink="http://www.w3.org/1999/xlink">
    <!-- Generator: Sketch 50.2 (55047) - http://www.bohemiancoding.com/sketch -->
    <title>linkedin</title>
    <desc>Created with Sketch.</desc>
    <defs></defs>
    <g id="FINAL-01" stroke="none" stroke-width="1" fill="none" fill-rule="evenodd">
        <g id="HOME" transform="translate(-1144.000000, -2513.000000)" fill="#444444">
            <g id="CONTACT" transform="translate(96.000000, 2425.000000)">
                <path d="M1084.56021,124.560215 L1078.93557,124.560215 L1078.93557,113.310918 C1078.93557,111.758515 1077.67565,110.498594 1076.12324,110.498594 C1074.56803,110.498594 1073.31092,111.758515 1073.31092,113.310918 L1073.31092,124.560215 L1067.68627,124.560215 L1067.68627,104.873945 L1073.31092,104.873945 L1073.31092,108.366852 C1074.4696,106.772264 1076.24417,104.873945 1078.23249,104.873945 C1081.7282,104.873945 1084.56021,108.020936 1084.56021,111.904756 L1084.56021,124.560215 Z M1062.06162,102.061621 C1060.50922,102.061621 1059.2493,100.8017 1059.2493,99.2492969 C1059.2493,97.6968939 1060.50922,96.4369727 1062.06162,96.4369727 C1063.61402,96.4369727 1064.87395,97.6968939 1064.87395,99.2492969 C1064.87395,100.8017 1063.61402,102.061621 1062.06162,102.061621 Z M1059.2493,124.560215 L1064.87395,124.560215 L1064.87395,104.873945 L1059.2493,104.873945 L1059.2493,124.560215 Z M1085.43766,88 L1055.55672,88 C1051.40291,88 1048,91.4001 1048,95.5595275 L1048,125.440472 C1048,129.597088 1051.4001,133 1055.55672,133 L1085.43766,133 C1089.59709,133 1093,129.5999 1093,125.440472 L1093,95.5595275 C1093,91.4029123 1089.5999,88 1085.43766,88 Z" id="linkedin"></path>
            </g>
        </g>
    </g>
</svg>