<?xml version="1.0" encoding="UTF-8"?>
<svg width="80px" height="92px" viewBox="0 0 80 92" version="1.1" xmlns="http://www.w3.org/2000/svg" xmlns:xlink="http://www.w3.org/1999/xlink">
    <!-- Generator: Sketch 49.1 (51147) - http://www.bohemiancoding.com/sketch -->
    <title>logo</title>
    <desc>Created with Sketch.</desc>
    <defs></defs>
    <g id="front" stroke="none" stroke-width="1" fill="none" fill-rule="evenodd">
        <g id="HOME" transform="translate(-125.000000, -58.000000)">
            <g id="logo" transform="translate(125.000000, 58.000000)">
                <path d="M72,15.0014331 C72,16.5313532 71.204718,19.7857772 71.1477074,19.9497882 C69.0991475,25.7965414 63.5461871,30 57.0030257,30 L42,30 L42,14.9998408 C42,13.5090923 42.2235835,12.0753495 42.6274352,10.7177206 C42.6439969,10.6591225 42.6570552,10.5970213 42.6742539,10.5409709 C42.7264871,10.3705905 42.794645,10.2145412 42.8532481,10.0492564 C44.9014895,4.20186622 50.4515835,0 56.9953818,0 L72,0 L72,15.0014331 Z" id="Fill-1" fill="#D9B6E4"></path>
                <path d="M31.8588231,-6.27986348e-05 C35.1356165,-6.27986348e-05 37.7890215,3.2199372 37.7890215,7.19132287 L37.7890215,8.01147304 L37.7890215,54.4620532 L37.7890215,77.7295754 L37.7890215,91.9044833 L25.9371041,91.9044833 L25.9371041,89.9878689 C23.7927736,92.1333843 21.4867074,91.9980532 21.4867074,91.9980532 L14.5257983,91.9980532 C6.50591405,91.9980532 6.28099174e-05,85.6095481 6.28099174e-05,77.7295754 L6.28099174e-05,73.5704218 L6.28099174e-05,54.1480601 C6.28099174e-05,46.2699713 6.50591405,40.2356505 14.5257983,40.2356505 L23.2642281,40.2356505 C24.2013521,40.2356505 25.0907405,40.3141488 25.9371041,40.4563877 L25.9371041,-6.27986348e-05 L30.7338975,-6.27986348e-05 L31.8588231,-6.27986348e-05 Z M25.9242281,75.2166881 L25.9242281,52.0204423 L16.4823273,52.0204423 C13.8804264,52.0204423 11.7725256,54.1304765 11.7725256,56.7300259 L11.7725256,70.0838416 L11.7725256,75.2166881 C11.7725256,77.8174935 13.8804264,79.9265857 16.4823273,79.9265857 L21.2106579,79.9265857 C23.814443,79.9265857 25.9242281,77.8174935 25.9242281,75.2166881 Z" id="Fill-5" fill="#FFFFFF"></path>
                <path d="M68.7144472,58.3405827 L80,58.3405827 L80,53.9775177 C80,46.0624238 73.4578153,40 65.3940895,40 L56.6071737,40 C46.78537,40 42,48.2658805 42,54.2901341 L42,77.666333 C42,85.5826888 48.5365002,92 56.6071737,92 L65.3940895,92 C73.4578153,92 80,85.5826888 80,77.666333 L80,73.4878095 L68.788661,73.4941186 L68.115368,73.4953804 L68.115368,75.1404808 C68.115368,77.7533987 65.9953793,79.8723133 63.3767369,79.8723133 L58.6219999,79.8723133 C56.0049365,79.8723133 53.8858952,77.7533987 53.8858952,75.1404808 L53.8858952,51.8362058 L63.3767369,51.8362058 C65.9953793,51.8362058 68.115368,53.9560668 68.115368,56.5677228 L68.115368,58.3405827 L68.7144472,58.3405827 Z" id="Fill-8" fill="#FFFFFF"></path>
            </g>
        </g>
    </g>
</svg>